<?xml version="1.0" standalone="no"?>
<!DOCTYPE svg PUBLIC "-//W3C//DTD SVG 20010904//EN"
 "http://www.w3.org/TR/2001/REC-SVG-20010904/DTD/svg10.dtd">
<svg version="1.0" xmlns="http://www.w3.org/2000/svg"
 width="64.000000pt" height="64.000000pt" viewBox="0 0 64.000000 64.000000"
 preserveAspectRatio="xMidYMid meet">

<g transform="translate(0.000000,64.000000) scale(0.100000,-0.100000)"
fill="#000000" stroke="none">
<path d="M129 547 c-45 -30 -59 -60 -59 -127 0 -47 -5 -63 -35 -104 -19 -27
-33 -51 -31 -54 2 -2 22 7 45 20 32 18 43 20 53 10 10 -10 10 -19 -1 -45 -29
-70 -43 -118 -37 -124 3 -4 20 6 36 22 16 16 33 25 37 21 4 -4 1 -11 -6 -15
-11 -7 -9 -11 7 -20 26 -14 35 -14 27 -1 -3 6 -1 10 5 10 6 0 8 -10 4 -24 -8
-32 18 -46 83 -46 26 -1 73 -9 103 -20 68 -24 102 -25 146 -4 45 21 64 60 64
127 0 42 7 69 30 112 17 32 28 60 25 63 -3 3 -19 -4 -35 -17 -34 -25 -35 -24
-15 49 11 42 12 56 2 63 -30 21 -128 60 -192 77 -38 11 -92 26 -119 35 -67 21
-97 19 -137 -8z m191 -108 c6 -45 15 -92 20 -104 7 -19 -3 -14 -56 25 -35 27
-82 55 -104 61 -37 11 -42 10 -65 -11 l-25 -23 0 25 c0 14 6 30 13 36 11 10
182 71 198 72 4 0 12 -37 19 -81z m166 30 c89 -33 89 -34 66 -112 -21 -71 -18
-78 25 -50 14 10 24 13 22 8 -27 -59 -49 -84 -49 -55 0 6 -6 10 -12 9 -7 -1
-41 -1 -74 0 l-61 1 -18 62 c-9 34 -23 67 -30 73 -7 5 -16 33 -19 62 l-7 52
53 -16 c29 -8 76 -24 104 -34z m-283 -75 c45 -24 137 -97 137 -109 0 -12 -111
-47 -152 -47 -19 -1 -25 -5 -21 -17 2 -9 -3 -5 -11 9 -22 37 -20 49 14 64 17
7 27 15 23 19 -13 13 -108 7 -131 -9 -36 -25 -25 0 24 55 49 55 67 60 117 35z
m-61 -175 c1 -8 -14 -30 -35 -48 -37 -33 -37 -33 -27 -7 30 80 52 100 62 55z
m161 0 c-28 -48 -39 -53 -67 -32 -14 10 -26 21 -26 24 0 5 54 24 108 38 2 1
-5 -13 -15 -30z m96 16 c16 -5 21 -4 17 4 -5 7 9 11 43 11 39 0 49 -3 45 -14
-3 -8 -1 -23 4 -33 18 -36 2 -45 -32 -19 -45 34 -70 37 -74 9 -3 -20 -35 -58
-75 -90 -16 -13 -128 -18 -140 -7 -3 3 -1 14 5 24 9 13 7 23 -5 41 -21 29 -21
39 -2 39 8 0 15 -6 15 -14 0 -16 38 -66 51 -66 5 0 9 5 9 10 0 6 9 19 19 29
17 17 21 18 32 5 24 -30 39 -16 39 37 0 37 4 50 13 46 6 -2 23 -8 36 -12z
m141 -12 c0 -10 3 -29 6 -43 5 -18 4 -22 -4 -15 -17 15 -27 75 -13 75 6 0 11
-8 11 -17z m-200 -22 c0 -17 -4 -32 -9 -35 -12 -8 -23 23 -16 45 10 29 25 22
25 -10z m110 -20 c0 -3 -11 -11 -24 -17 -23 -11 -24 -10 -14 12 9 20 38 24 38
5z m-200 -33 c0 -6 -7 -5 -15 2 -8 7 -15 17 -15 22 0 6 7 5 15 -2 8 -7 15 -17
15 -22z m209 5 c-15 -17 -98 -58 -105 -50 -3 3 102 64 115 66 2 1 -3 -6 -10
-16z"/>
</g>
</svg>
