<?xml version="1.0" standalone="no"?>
<!DOCTYPE svg PUBLIC "-//W3C//DTD SVG 20010904//EN"
 "http://www.w3.org/TR/2001/REC-SVG-20010904/DTD/svg10.dtd">
<svg version="1.0" xmlns="http://www.w3.org/2000/svg"
 width="16.000000pt" height="16.000000pt" viewBox="0 0 16.000000 16.000000"
 preserveAspectRatio="xMidYMid meet">

<g transform="translate(0.000000,16.000000) scale(0.100000,-0.100000)"
fill="#000000" stroke="none">
<path d="M3 93 c2 -37 6 -74 10 -80 8 -13 85 -17 124 -7 20 6 22 12 20 78 l-2
71 -77 3 -77 3 2 -68z m83 2 c14 -19 30 -33 34 -30 13 8 22 -13 15 -35 -4 -11
-14 -20 -23 -20 -15 1 -14 3 3 16 20 16 20 16 -2 9 -20 -5 -23 -3 -23 18 0 14
-7 27 -15 31 -8 3 -14 11 -13 18 2 8 -7 13 -24 13 -14 -1 -24 3 -22 7 12 18
45 6 70 -27z m-56 -5 c0 -5 -5 -10 -11 -10 -5 0 -7 5 -4 10 3 6 8 10 11 10 2
0 4 -4 4 -10z m11 -47 c0 -15 2 -15 7 -3 10 22 29 22 35 1 3 -15 -2 -20 -26
-25 -35 -7 -51 3 -41 27 8 22 24 22 25 0z"/>
</g>
</svg>
