<?xml version="1.0" standalone="no"?>
<!DOCTYPE svg PUBLIC "-//W3C//DTD SVG 20010904//EN"
 "http://www.w3.org/TR/2001/REC-SVG-20010904/DTD/svg10.dtd">
<svg version="1.0" xmlns="http://www.w3.org/2000/svg"
 width="32.000000pt" height="32.000000pt" viewBox="0 0 32.000000 32.000000"
 preserveAspectRatio="xMidYMid meet">

<g transform="translate(0.000000,32.000000) scale(0.100000,-0.100000)"
fill="#000000" stroke="none">
<path d="M72 280 c-24 -10 -46 -55 -37 -78 3 -8 0 -22 -7 -31 -7 -9 0 -5 14 8
31 27 57 24 101 -13 l29 -23 -47 -13 c-49 -14 -71 -6 -42 15 17 12 17 13 0 17
-30 8 -46 -2 -32 -18 6 -8 8 -14 3 -14 -5 0 -2 -5 6 -10 13 -9 12 -13 -7 -29
-13 -11 -23 -22 -23 -26 0 -4 7 -2 15 5 12 10 18 8 34 -11 l20 -24 -4 33 c-4
29 -2 32 10 22 8 -7 12 -16 9 -21 -13 -22 16 -6 36 19 20 26 21 26 14 3 -4
-16 -3 -21 5 -17 6 4 11 17 11 29 0 16 3 18 11 10 20 -20 -16 -63 -54 -64 -20
-1 -24 -3 -12 -6 11 -2 37 -11 57 -18 61 -24 118 14 104 68 -3 12 -1 26 5 33
7 8 6 12 -3 11 -7 0 -30 1 -51 1 -33 2 -38 5 -44 32 -3 17 -10 33 -14 36 -5 3
-9 18 -9 34 0 21 -6 29 -24 34 -13 3 -30 8 -38 10 -7 3 -23 1 -36 -4z m85 -65
c6 -25 9 -45 7 -45 -2 0 -20 11 -40 25 -42 28 -54 30 -73 13 -11 -11 -13 -10
-9 2 4 12 74 47 99 49 3 1 10 -19 16 -44z m-13 -110 c-7 -17 -20 -20 -29 -6
-3 5 3 12 12 14 10 3 19 5 20 6 1 0 0 -6 -3 -14z m106 3 c0 -9 4 -8 11 2 9 13
10 13 6 0 -2 -8 -14 -15 -26 -14 -15 0 -20 -4 -17 -13 3 -8 2 -11 -3 -8 -17
10 -8 45 11 45 10 0 18 -6 18 -12z"/>
<path d="M228 238 c53 -20 54 -21 47 -54 -3 -19 -2 -34 2 -34 4 0 9 16 11 35
2 33 -1 37 -40 55 -24 11 -50 19 -58 19 -8 0 9 -9 38 -21z"/>
<path d="M5 140 c-3 -5 -2 -10 4 -10 5 0 13 5 16 10 3 6 2 10 -4 10 -5 0 -13
-4 -16 -10z"/>
</g>
</svg>
