<?xml version="1.0" standalone="no"?>
<!DOCTYPE svg PUBLIC "-//W3C//DTD SVG 20010904//EN"
 "http://www.w3.org/TR/2001/REC-SVG-20010904/DTD/svg10.dtd">
<svg version="1.0" xmlns="http://www.w3.org/2000/svg"
 width="600.000000pt" height="600.000000pt" viewBox="0 0 600.000000 600.000000"
 preserveAspectRatio="xMidYMid meet">

<g transform="translate(0.000000,600.000000) scale(0.100000,-0.100000)"
fill="#000000" stroke="none">
<path d="M1670 5335 c-8 -2 -49 -9 -90 -15 -360 -58 -657 -274 -817 -595 -95
-189 -133 -360 -140 -625 -6 -206 7 -351 46 -545 l18 -89 -60 -75 c-130 -164
-614 -872 -618 -904 -4 -31 3 -48 26 -63 31 -21 45 -15 160 61 245 163 465
278 613 321 51 14 94 25 96 23 2 -2 39 -75 84 -162 l80 -159 -59 -91 c-104
-160 -239 -451 -321 -687 -70 -204 -133 -505 -126 -606 5 -79 23 -72 156 58
158 154 490 429 518 428 7 0 99 -191 123 -252 2 -6 -34 15 -80 46 -87 58 -117
67 -143 40 -30 -29 -20 -69 26 -107 70 -57 339 -227 359 -227 24 0 59 35 59
58 0 10 -26 68 -57 128 l-57 109 43 -35 c23 -19 77 -60 121 -91 l78 -55 -30
-45 c-164 -239 -88 -417 205 -481 137 -29 500 -36 750 -13 l188 17 167 -85
c264 -135 437 -201 682 -261 189 -47 299 -60 495 -60 371 1 643 100 862 315
140 137 228 283 292 482 17 53 31 105 31 115 0 9 7 30 15 46 8 16 15 45 15 65
-1 20 2 110 6 202 8 187 -4 334 -42 532 l-25 128 74 97 c145 194 294 470 411
764 68 170 78 224 50 252 -38 38 -75 19 -287 -149 -107 -85 -335 -230 -345
-220 -2 2 12 56 31 122 95 322 217 826 217 895 0 11 11 29 25 40 40 31 34 69
-21 115 -239 205 -1037 553 -1719 749 -240 69 -556 148 -660 165 -58 10 -113
29 -200 70 -271 128 -565 216 -825 248 -75 10 -360 14 -400 6z m1471 -454 c35
-11 143 -40 239 -66 500 -133 712 -201 1070 -343 364 -144 642 -276 815 -385
140 -88 129 -69 95 -178 -26 -84 -101 -359 -135 -494 -36 -145 -165 -585 -177
-609 -11 -21 4 -90 23 -102 6 -3 20 3 32 14 12 11 78 47 147 82 123 61 302
172 390 243 24 20 46 35 48 33 1 -2 -24 -61 -56 -132 -65 -144 -188 -370 -265
-484 -60 -91 -155 -210 -166 -210 -5 0 -12 26 -16 58 -4 31 -10 62 -15 67 -4
6 -13 33 -19 60 -28 118 -32 126 -58 136 -14 5 -34 7 -44 4 -10 -3 -63 -65
-118 -138 -55 -73 -130 -166 -166 -207 -35 -41 -65 -79 -65 -84 0 -11 67 -200
86 -241 24 -56 74 -185 74 -195 0 -6 -11 -10 -23 -10 -41 0 -56 -29 -69 -138
-8 -57 -16 -104 -19 -105 -3 -1 -56 57 -117 130 -114 134 -154 173 -178 173
-22 0 -16 -56 11 -111 17 -32 24 -58 19 -71 -3 -11 -47 -62 -98 -113 -183
-184 -507 -366 -836 -470 -395 -126 -860 -196 -1285 -196 -217 0 -317 9 -418
38 -66 18 -122 63 -132 106 -9 34 35 129 97 212 25 33 48 69 52 80 6 22 4 27
-171 365 -56 107 -104 205 -107 216 -6 19 2 27 56 56 35 19 78 40 97 48 l34
14 56 -60 c31 -33 61 -71 68 -84 6 -14 34 -77 62 -140 93 -208 261 -458 339
-503 48 -28 89 -14 116 38 17 33 20 58 21 152 0 126 2 129 68 106 33 -11 42
-10 62 3 25 16 138 149 195 227 45 64 74 63 100 -3 57 -143 175 -260 262 -260
63 0 114 65 139 175 16 71 19 451 5 649 l-9 129 67 -6 c155 -15 390 -101 450
-166 51 -53 116 -35 116 32 0 18 -7 42 -15 53 -8 12 -24 45 -35 74 -19 48 -19
52 -3 46 39 -15 393 -27 687 -22 283 4 311 6 323 22 30 42 9 97 -44 110 -50
13 -733 -4 -871 -21 -74 -9 -135 -15 -136 -13 -3 4 -30 80 -111 318 -79 232
-221 698 -245 808 -20 89 -40 122 -75 122 -29 0 -58 -33 -58 -67 0 -16 10
-125 22 -243 53 -510 51 -481 28 -501 -22 -17 -22 -17 -39 74 -88 454 -223
1449 -233 1714 -4 87 -8 168 -11 181 -5 27 -10 26 67 3z m-156 -483 c76 -559
209 -1213 299 -1477 15 -41 26 -76 26 -78 0 -2 -69 57 -152 130 -375 325 -739
594 -1042 767 -380 218 -701 291 -890 202 -60 -28 -166 -95 -198 -124 -108
-101 -179 -158 -182 -146 -3 7 -16 92 -30 188 -15 96 -29 192 -32 212 -6 37
-5 37 68 84 269 174 909 430 1430 573 157 43 483 122 593 143 l70 14 7 -147
c4 -81 19 -234 33 -341z m-1420 -568 c315 -76 597 -237 1125 -645 204 -156
548 -450 558 -475 2 -5 -21 -52 -51 -107 -63 -112 -34 -98 -271 -128 -291 -37
-711 -172 -1068 -344 l-107 -52 -93 78 c-124 104 -156 126 -174 119 -23 -9 13
-68 103 -164 l74 -81 -48 -27 c-27 -15 -57 -33 -69 -40 -20 -12 -26 0 -157
271 -75 156 -137 288 -137 293 0 16 106 108 182 158 93 62 170 91 274 104 116
14 120 15 134 51 11 27 10 34 -7 57 -15 20 -35 30 -84 39 -211 43 -525 62
-709 44 -123 -13 -290 -51 -355 -81 -22 -10 -75 -34 -117 -53 -42 -19 -120
-60 -172 -91 -52 -31 -98 -56 -101 -56 -10 0 215 327 343 500 254 342 448 532
634 620 53 25 75 30 138 30 41 0 111 -9 155 -20z m2109 -1407 c6 -19 3 -19
-73 8 -85 30 -221 59 -277 59 -19 0 -34 3 -34 6 0 3 15 32 32 64 l33 58 45
-38 c60 -50 81 -55 113 -29 32 24 34 51 12 209 -8 58 -14 110 -14 115 0 8 141
-383 163 -452z m-2244 420 c3 -3 -1 -8 -8 -10 -26 -10 -133 -85 -182 -130 -28
-25 -52 -44 -54 -42 -1 2 -23 45 -48 96 l-46 92 32 4 c39 6 299 -3 306 -10z
m-237 -410 c10 -33 147 -364 188 -450 21 -48 36 -90 32 -93 -5 -4 -51 -36
-103 -70 -52 -35 -151 -106 -219 -158 -130 -100 -385 -332 -415 -377 -10 -15
-19 -25 -22 -23 -6 7 118 381 176 528 88 224 320 660 351 660 4 0 9 -8 12 -17z
m3845 -107 c-8 -19 -6 -41 10 -103 39 -146 167 -752 160 -758 -2 -2 -57 37
-123 86 l-120 90 -33 102 c-18 56 -55 164 -83 240 l-50 138 67 72 c37 40 90
100 118 135 45 56 51 61 58 42 4 -11 3 -31 -4 -44z m-1988 28 c0 -9 -147 -244
-230 -369 -82 -123 -233 -324 -288 -385 l-40 -45 -59 30 c-104 53 -536 359
-558 394 -13 23 411 196 670 274 125 38 376 92 493 106 6 0 12 -2 12 -5z m101
-291 c10 -175 -1 -433 -21 -505 -13 -46 -34 -49 -90 -12 -47 31 -95 101 -141
203 -30 67 -31 75 -18 96 107 172 253 394 256 391 3 -2 9 -80 14 -173z m-1577
-489 c52 -104 93 -190 92 -190 0 -1 -72 67 -160 151 l-158 153 63 40 c35 23
65 39 67 38 2 -2 45 -89 96 -192z m542 91 c64 -47 136 -97 159 -110 l42 -25 6
-121 c4 -66 3 -128 -1 -136 -19 -33 -206 213 -291 384 -41 82 -45 93 -37 93 3
0 58 -38 122 -85z"/>
<path d="M3843 1979 c-6 -8 -18 -52 -28 -99 -21 -105 -61 -208 -127 -325 -110
-195 -189 -294 -314 -394 -143 -116 -260 -171 -361 -171 -47 0 -56 -15 -25
-43 24 -22 101 -22 173 -1 118 35 267 128 389 241 41 38 88 73 104 77 84 21
415 167 528 233 126 74 194 179 169 263 -23 76 -107 130 -297 189 -122 39
-195 49 -211 30z m190 -119 c53 -17 97 -34 97 -38 0 -5 -15 -13 -34 -20 -40
-15 -71 -46 -61 -63 7 -11 84 -8 188 8 34 5 37 4 37 -19 0 -14 -10 -40 -23
-59 -19 -28 -28 -33 -53 -31 -67 7 -274 -51 -274 -77 0 -6 34 -11 78 -13 l77
-3 -90 -44 c-143 -69 -246 -113 -252 -107 -3 2 8 24 24 48 81 119 155 293 169
398 4 27 10 50 13 50 4 0 50 -14 104 -30z"/>
</g>
</svg>
